# xmcd
#
# Track frame offsets: 
#        150
#        11492
#        30946
#        45194
#        69051
#        87757
#        107271
#        124673
#        142177
#        160361
#        179523
#
# Disc length: 2600 seconds
#
# Revision: 0
# Processed by: cddbd v1.5.2PL0 Copyright (c) Steve Scherf et al.
# Submitted via: ExactAudioCopyFreeDBPlugin 1.0
#
DISCID=7b0a260b
DTITLE=Beggar's Blues Diary - Desperate Rock 'N' Roll
DYEAR=2014
DGENRE=Blues
TTITLE0=Gotta Mova
TTITLE1=Lunatic
TTITLE2=The Motorchrist
TTITLE3=These Days
TTITLE4=Jesse James
TTITLE5=Renegade Son
TTITLE6=That Road
TTITLE7=Lizard
TTITLE8=Downtown Train
TTITLE9=Gun In My Hand
TTITLE10=Desperate Rock ‘N’ Roll
EXTD=
EXTT0=
EXTT1=
EXTT2=
EXTT3=
EXTT4=
EXTT5=
EXTT6=
EXTT7=
EXTT8=
EXTT9=
EXTT10=
PLAYORDER=
